HIERARCHY
ROOT Hips
{
	OFFSET 0.000000 0.000000 0.000000
	CHANNELS 6 Xposition Yposition Zposition Zrotation Yrotation Xrotation 
	JOINT LowerBack
	{
		OFFSET 0.000000 0.000000 0.000000
		CHANNELS 3 Zrotation Yrotation Xrotation
		JOINT Spine
		{
			OFFSET 0.028270 2.035590 -0.193380
			CHANNELS 3 Zrotation Yrotation Xrotation
			JOINT Spine1
			{
				OFFSET 0.056720 2.048850 -0.042750
				CHANNELS 3 Zrotation Yrotation Xrotation
				JOINT Neck
				{
					OFFSET 0.000000 0.000000 0.000000
					CHANNELS 3 Zrotation Yrotation Xrotation
					JOINT Neck1
					{
						OFFSET -0.054170 1.746240 0.172020
						CHANNELS 3 Zrotation Yrotation Xrotation
						JOINT Head
						{
							OFFSET 0.104070 1.761360 -0.123970
							CHANNELS 3 Zrotation Yrotation Xrotation
							End Site
							{
								OFFSET 0.000000 0.000000 0.000000
							}
						}
					}
				}
				JOINT LeftShoulder
				{
					OFFSET 0.000000 0.000000 0.000000
					CHANNELS 3 Zrotation Yrotation Xrotation
					JOINT LeftArm
					{
						OFFSET 3.362410 1.200890 -0.311210
						CHANNELS 3 Zrotation Yrotation Xrotation
						JOINT LeftForeArm
						{
							OFFSET 4.983000 -0.000000 -0.000000
							CHANNELS 3 Zrotation Yrotation Xrotation
							JOINT LeftHand
							{
								OFFSET 3.483560 -0.000000 -0.000000
								CHANNELS 3 Zrotation Yrotation Xrotation
								JOINT LeftFingerBase
								{
									OFFSET 0.000000 0.000000 0.000000
									CHANNELS 3 Zrotation Yrotation Xrotation
									JOINT LeftHandIndex1
									{
										OFFSET 0.715260 -0.000000 -0.000000
										CHANNELS 3 Zrotation Yrotation Xrotation
										End Site
										{
											OFFSET 0.000000 0.000000 0.000000
										}
									}
								}
								JOINT LThumb
								{
									OFFSET 0.000000 0.000000 0.000000
									CHANNELS 3 Zrotation Yrotation Xrotation
									End Site
									{
										OFFSET 0.000000 0.000000 0.000000
									}
								}
							}
						}
					}
				}
				JOINT RightShoulder
				{
					OFFSET 0.000000 0.000000 0.000000
					CHANNELS 3 Zrotation Yrotation Xrotation
					JOINT RightArm
					{
						OFFSET -3.136600 1.374050 -0.404650
						CHANNELS 3 Zrotation Yrotation Xrotation
						JOINT RightForeArm
						{
							OFFSET -5.241900 -0.000000 -0.000000
							CHANNELS 3 Zrotation Yrotation Xrotation
							JOINT RightHand
							{
								OFFSET -3.444170 -0.000000 -0.000000
								CHANNELS 3 Zrotation Yrotation Xrotation
								JOINT RightFingerBase
								{
									OFFSET 0.000000 0.000000 0.000000
									CHANNELS 3 Zrotation Yrotation Xrotation
									JOINT RightHandIndex1
									{
										OFFSET -0.622530 -0.000000 -0.000000
										CHANNELS 3 Zrotation Yrotation Xrotation
										End Site
										{
											OFFSET 0.000000 0.000000 0.000000
										}
									}
								}
								JOINT RThumb
								{
									OFFSET 0.000000 0.000000 0.000000
									CHANNELS 3 Zrotation Yrotation Xrotation
									End Site
									{
										OFFSET 0.000000 0.000000 0.000000
									}
								}
							}
						}
					}
				}
			}
		}
	}
}
}
MOTION
Frames: 12
Frame Time: 0.008333
-20.017394 15.535962 -0.543380 63.432022 89.004506 91.278245 -5.531595 1.827739 -7.157293 -2.181602 2.049123 -5.040265 -5.977544 1.894440 -1.322080 8.495025 1.144253 -5.710533 -3.887297 -0.325255 0.417609 0.000000 0.000000 0.000000 -4.888117 8.241413 4.320775 -61.518637 23.039895 4.370999 -4.586604 -5.744868 -0.004027 3.444259 3.594501 0.112677 -0.104074 -0.049105 -0.000000 0.000000 0.000000 0.000000 0.000000 0.000000 0.000000 15.410814 9.147828 1.285926 68.656197 47.108308 30.614588 1.491032 56.307908 0.010435 1.487307 10.004792 0.139366 -0.020748 -0.452262 -0.000000 0.000000 0.000000 0.000000 0.000000 0.000000 0.000000 
-19.761132 15.567982 -0.549270 68.464131 88.991723 96.402526 -5.702368 1.786857 -7.257673 -2.242855 2.023845 -5.070395 -6.054148 1.868689 -1.378717 8.648142 1.160484 -5.687977 -3.945346 -0.329669 0.419311 0.000000 0.000000 0.000000 -4.715385 7.905768 4.326391 -61.249745 21.950894 4.105946 -4.569431 -4.883697 -0.003265 4.012165 3.289725 0.119493 -0.102033 -0.042987 -0.000000 0.000000 0.000000 0.000000 0.000000 0.000000 0.000000 15.786689 9.106113 1.302745 68.910432 46.187157 29.915970 1.490455 55.763583 0.007968 0.992368 10.080006 0.094103 -0.013308 -0.453918 -0.000000 0.000000 0.000000 0.000000 0.000000 0.000000 0.000000 
-19.507341 15.607349 -0.556850 72.529391 88.953208 100.520899 -5.860123 1.740834 -7.308775 -2.298458 1.992456 -5.090976 -6.130821 1.835745 -1.438336 8.790590 1.192304 -5.655846 -4.006115 -0.334232 0.423168 0.000000 0.000000 0.000000 -4.534678 7.542271 4.333960 -61.092918 20.772425 3.955232 -4.541733 -4.084549 -0.002652 4.556501 2.994670 0.123110 -0.099472 -0.036845 -0.000000 0.000000 0.000000 0.000000 0.000000 0.000000 0.000000 16.164943 9.059276 1.312390 69.208704 45.155856 29.212292 1.486482 55.108968 0.004899 0.395236 10.208069 0.038738 -0.004620 -0.455137 -0.000000 0.000000 0.000000 0.000000 0.000000 0.000000 0.000000 
-19.256767 15.653578 -0.565237 75.721568 88.868575 103.721094 -6.028944 1.683513 -7.304690 -2.353439 1.951213 -5.101099 -6.205513 1.792061 -1.502139 8.923092 1.240083 -5.609205 -4.066821 -0.338776 0.430535 0.000000 0.000000 0.000000 -4.335086 7.138830 4.344515 -61.053633 19.525379 3.912889 -4.506159 -3.375126 -0.002241 5.066202 2.727860 0.124227 -0.096655 -0.030650 -0.000000 0.000000 0.000000 0.000000 0.000000 0.000000 0.000000 16.536993 9.003817 1.313040 69.566435 44.027778 28.504325 1.478827 54.322497 0.001299 -0.289809 10.381094 -0.026535 0.004900 -0.455611 -0.000000 0.000000 0.000000 0.000000 0.000000 0.000000 0.000000 
-19.010205 15.705981 -0.574350 78.074410 88.744346 106.043074 -6.201584 1.612267 -7.250739 -2.405841 1.897080 -5.100236 -6.274806 1.734819 -1.565223 9.039700 1.304853 -5.550123 -4.123553 -0.342965 0.441090 0.000000 0.000000 0.000000 -4.113139 6.718769 4.357287 -61.131495 18.191869 4.000546 -4.463306 -2.762642 -0.002067 5.530130 2.503375 0.124043 -0.093818 -0.024328 -0.000000 0.000000 0.000000 0.000000 0.000000 0.000000 0.000000 16.877686 8.938838 1.299151 70.002290 42.816370 27.785923 1.467078 53.387189 -0.002665 -1.035652 10.586621 -0.100119 0.014676 -0.454909 -0.000000 0.000000 0.000000 0.000000 0.000000 0.000000 0.000000 
-18.768106 15.763940 -0.583770 79.707017 88.583118 107.611287 -6.377872 1.525046 -7.153186 -2.455634 1.827931 -5.088767 -6.337723 1.661993 -1.624980 9.140862 1.384044 -5.479342 -4.173913 -0.346613 0.454810 0.000000 0.000000 0.000000 -3.868236 6.288315 4.370513 -61.316305 16.779105 4.217071 -4.415360 -2.268348 -0.002139 5.936317 2.330420 0.123461 -0.091229 -0.017877 -0.000000 0.000000 0.000000 0.000000 0.000000 0.000000 0.000000 17.177417 8.860736 1.270660 70.524113 41.538298 27.048181 1.451659 52.289910 -0.006789 -1.810658 10.808535 -0.179615 0.024153 -0.452646 -0.000000 0.000000 0.000000 0.000000 0.000000 0.000000 0.000000 
-18.530287 15.826938 -0.592359 80.739500 88.368585 108.546048 -6.581679 1.418311 -7.015614 -2.508305 1.741992 -5.068142 -6.396514 1.571702 -1.684217 9.237269 1.472194 -5.393373 -4.217951 -0.349786 0.472609 0.000000 0.000000 0.000000 -3.599539 5.821307 4.382697 -61.586924 15.340720 4.547863 -4.366693 -1.945117 -0.002447 6.273012 2.219454 0.123877 -0.089138 -0.011440 -0.000000 0.000000 0.000000 0.000000 0.000000 0.000000 0.000000 17.451990 8.763667 1.234694 71.127135 40.209979 26.278502 1.433826 51.023743 -0.010832 -2.579372 11.024719 -0.261228 0.032816 -0.448538 -0.000000 0.000000 0.000000 0.000000 0.000000 0.000000 0.000000 
-18.296863 15.894359 -0.600847 81.424613 88.140396 109.111789 -6.769841 1.296369 -6.850143 -2.554533 1.639435 -5.038602 -6.450332 1.464222 -1.735223 9.322424 1.566378 -5.301231 -4.253907 -0.352258 0.492429 0.000000 0.000000 0.000000 -3.324779 5.357203 4.389869 -61.919346 13.849947 5.013798 -4.317363 -1.792642 -0.002950 6.531094 2.164060 0.125294 -0.087664 -0.005032 -0.000000 0.000000 0.000000 0.000000 0.000000 0.000000 0.000000 17.682227 8.647580 1.190227 71.808339 38.845427 25.456474 1.414544 49.593673 -0.014514 -3.301608 11.217876 -0.340157 0.040180 -0.442274 -0.000000 0.000000 0.000000 0.000000 0.000000 0.000000 0.000000 
-18.067186 15.965758 -0.609173 81.930533 87.908671 109.482912 -6.933585 1.160083 -6.665621 -2.592723 1.520066 -5.001507 -6.501128 1.339342 -1.776119 9.400536 1.660323 -5.206983 -4.282579 -0.354074 0.513272 0.000000 0.000000 0.000000 -3.058269 4.899917 4.389305 -62.282765 12.326023 5.615104 -4.269561 -1.838077 -0.003587 6.705285 2.156409 0.127811 -0.086885 0.001214 -0.000000 0.000000 0.000000 0.000000 0.000000 0.000000 0.000000 17.876211 8.508855 1.142956 72.551187 37.458785 24.561923 1.395763 48.011527 -0.017613 -3.943007 11.370305 -0.411400 0.045939 -0.433739 -0.000000 0.000000 0.000000 0.000000 0.000000 0.000000 0.000000 
-17.840839 16.040783 -0.616708 82.308732 87.663668 109.716607 -7.087750 1.008021 -6.470097 -2.626545 1.383572 -4.959145 -6.552219 1.196652 -1.808784 9.482029 1.748563 -5.111475 -4.306420 -0.355444 0.534762 0.000000 0.000000 0.000000 -2.808768 4.434439 4.379927 -62.641951 10.810600 6.339672 -4.226032 -2.119258 -0.004290 6.797276 2.184722 0.130930 -0.086807 0.007123 -0.000000 0.000000 0.000000 0.000000 0.000000 0.000000 0.000000 18.057928 8.344543 1.101247 73.330675 36.057897 23.571172 1.379345 46.300703 -0.019974 -4.476468 11.463234 -0.470355 0.049915 -0.422993 -0.000000 0.000000 0.000000 0.000000 0.000000 0.000000 0.000000 
-17.617025 16.118965 -0.624173 82.644613 87.430570 109.912616 -7.203687 0.843763 -6.278676 -2.650125 1.231142 -4.913154 -6.604189 1.037511 -1.827184 9.563795 1.824731 -5.024480 -4.326201 -0.356347 0.554450 0.000000 0.000000 0.000000 -2.597197 3.992419 4.359319 -62.966320 9.286696 7.204871 -4.186066 -2.633305 -0.004990 6.814841 2.227140 0.133452 -0.087357 0.012637 -0.000000 0.000000 0.000000 0.000000 0.000000 0.000000 0.000000 18.224422 8.152446 1.066618 74.124968 34.652490 22.468184 1.367555 44.488574 -0.021507 -4.886737 11.492531 -0.514221 0.052177 -0.410157 -0.000000 0.000000 0.000000 0.000000 0.000000 0.000000 0.000000 
-17.395215 16.199878 -0.631665 82.913273 87.210920 110.056444 -7.280605 0.668543 -6.103040 -2.663761 1.064083 -4.865943 -6.658995 0.863297 -1.830400 9.649392 1.881956 -4.950525 -4.343984 -0.356925 0.571081 0.000000 0.000000 0.000000 -2.436586 3.576952 4.327066 -63.225171 7.770451 8.211996 -4.149660 -3.395355 -0.005622 6.773970 2.264256 0.134676 -0.088442 0.017648 0.000000 0.000000 0.000000 0.000000 0.000000 0.000000 0.000000 18.388845 7.929027 1.043557 74.904898 33.248506 21.242965 1.362448 42.607781 -0.022234 -5.174456 11.456808 -0.542089 0.052987 -0.395513 -0.000000 0.000000 0.000000 0.000000 0.000000 0.000000 0.000000 
